# xmcd
#
# Track frame offsets: 
#        150
#        13547
#        22886
#        36315
#        48541
#        61916
#        79028
#        89728
#        102953
#        117105
#        128298
#        146907
#        163049
#        179095
#
# Disc length: 2593 seconds
#
# Revision: 1
# Processed by: cddbd v1.5.2PL0 Copyright (c) Steve Scherf et al.
# Submitted via: ExactAudioCopy v1.3
#
DISCID=b80a1f0e
DTITLE=Jeremy Wakefield - Jeremy Wakefield_Steel Guitar Caviar
DYEAR=2005
DGENRE=Instrumental
TTITLE0=Delaware Drive
TTITLE1=Sugar Foot Stomp
TTITLE2=Dark Circles
TTITLE3=The Red Garter
TTITLE4=Taking Off
TTITLE5=Hawaii Creeper
TTITLE6=Tiny's Tempo
TTITLE7=Mudslide
TTITLE8=High's Blues
TTITLE9=Mugsy's Flop
TTITLE10=Penthouse Serenade
TTITLE11=I Wish I Were Twins
TTITLE12=Blue and Drifting
TTITLE13=Steel Guitar Jive
EXTD=
EXTT0=
EXTT1=
EXTT2=
EXTT3=
EXTT4=
EXTT5=
EXTT6=
EXTT7=
EXTT8=
EXTT9=
EXTT10=
EXTT11=
EXTT12=
EXTT13=
PLAYORDER=
